<?xml version="1.0" standalone="no"?>
<!DOCTYPE svg PUBLIC "-//W3C//DTD SVG 20010904//EN"
 "http://www.w3.org/TR/2001/REC-SVG-20010904/DTD/svg10.dtd">
<svg version="1.0" xmlns="http://www.w3.org/2000/svg"
 width="512.000000pt" height="512.000000pt" viewBox="0 0 512.000000 512.000000"
 preserveAspectRatio="xMidYMid meet">
<metadata>
Created by potrace 1.14, written by Peter Selinger 2001-2017
</metadata>
<g transform="translate(0.000000,512.000000) scale(0.100000,-0.100000)"
fill="#000000" stroke="none">
<path d="M3121 5085 c-131 -69 -170 -134 -140 -235 9 -31 8 -47 -6 -91 -20
-63 -70 -145 -96 -159 -58 -32 -677 12 -792 56 -21 8 -62 32 -90 53 -72 55
-96 63 -135 44 -84 -41 -160 -363 -103 -434 18 -23 24 -24 129 -21 129 4 155
-2 441 -95 225 -74 334 -123 365 -166 39 -53 17 -197 -88 -577 -9 -30 -31
-118 -50 -195 -19 -77 -44 -176 -56 -220 -12 -44 -26 -93 -30 -110 -88 -330
-131 -487 -150 -545 -4 -14 -18 -61 -30 -105 -51 -189 -179 -580 -219 -670
-88 -197 -145 -286 -201 -315 -102 -53 -387 -65 -551 -22 -97 25 -265 133
-379 244 -154 150 -401 472 -384 499 4 8 57 10 163 8 94 -3 158 0 160 6 5 11
-5 18 -179 131 -74 48 -171 110 -215 139 -191 124 -304 195 -309 195 -12 0
-26 -42 -36 -102 -6 -35 -17 -99 -25 -143 -19 -103 -29 -160 -54 -320 -12 -71
-28 -168 -37 -215 -21 -115 -28 -210 -15 -210 15 0 50 50 124 176 36 61 72
115 79 122 19 15 34 3 46 -38 63 -216 205 -517 316 -667 155 -210 362 -364
595 -442 358 -121 658 -252 724 -316 35 -34 73 -106 106 -198 29 -84 68 -147
91 -147 20 0 34 11 154 119 103 93 145 117 226 130 100 17 332 13 609 -9 318
-25 433 -17 633 46 282 88 553 285 917 667 66 70 106 106 113 99 5 -5 16 -92
24 -193 17 -216 18 -220 43 -193 19 20 44 87 126 349 27 83 60 188 75 235 16
47 43 135 60 195 18 61 37 112 41 113 5 2 9 12 9 23 0 27 -9 26 -310 -21 -231
-36 -463 -71 -515 -78 -27 -4 -50 -11 -49 -17 1 -5 48 -29 105 -52 164 -67
199 -85 199 -102 0 -21 -270 -181 -465 -276 -129 -62 -282 -123 -415 -163 -53
-17 -246 -34 -299 -27 -83 12 -154 36 -276 95 -140 68 -213 121 -237 170 -33
67 -40 171 -23 351 8 90 25 223 36 294 11 72 24 154 29 183 5 29 13 74 19 100
10 39 38 179 101 497 11 57 37 179 55 260 9 39 20 93 25 120 15 78 60 275 74
330 8 28 19 77 26 110 7 33 18 85 26 115 85 352 87 361 131 402 59 56 174 57
579 7 182 -23 233 -36 293 -74 65 -41 91 -48 123 -34 52 22 93 113 124 281 15
83 15 89 -3 125 -10 21 -30 44 -45 52 -24 14 -32 13 -84 -3 -71 -22 -157 -23
-226 -2 -281 88 -527 178 -604 222 -49 28 -64 62 -64 143 0 70 16 116 57 165
17 21 33 50 36 65 13 65 -38 178 -104 230 -104 81 -208 93 -318 36z m205 -156
c29 -27 30 -48 4 -76 -45 -49 -144 -30 -165 31 -8 25 -6 31 20 53 24 21 36 24
72 20 27 -3 54 -14 69 -28z"/>
</g>
</svg>
